<mxfile host="app.diagrams.net" agent="Mozilla/5.0 (Windows NT 10.0; Win64; x64) AppleWebKit/537.36 (KHTML, like Gecko) Chrome/121.0.0.0 Safari/537.36" version="26.2.14">
  <diagram name="Page-1" id="vslwjw5_E-lB0Mcamgjk">
    <mxGraphModel dx="4019" dy="1740" grid="1" gridSize="10" guides="1" tooltips="1" connect="1" arrows="1" fold="1" page="1" pageScale="1" pageWidth="850" pageHeight="1100" math="0" shadow="0">
      <root>
        <mxCell id="0" />
        <mxCell id="1" parent="0" />
        <mxCell id="LgGMUkChui8B4dA3I5-y-1" value="FACULTY" style="rounded=0;whiteSpace=wrap;html=1;" vertex="1" parent="1">
          <mxGeometry x="-40" y="340" width="120" height="60" as="geometry" />
        </mxCell>
        <mxCell id="LgGMUkChui8B4dA3I5-y-2" value="STUDENT" style="rounded=0;whiteSpace=wrap;html=1;" vertex="1" parent="1">
          <mxGeometry x="350" y="340" width="120" height="60" as="geometry" />
        </mxCell>
        <mxCell id="LgGMUkChui8B4dA3I5-y-3" value="HOSTEL" style="rounded=0;whiteSpace=wrap;html=1;" vertex="1" parent="1">
          <mxGeometry x="140" y="1000" width="120" height="60" as="geometry" />
        </mxCell>
        <mxCell id="LgGMUkChui8B4dA3I5-y-4" value="COURSE" style="rounded=0;whiteSpace=wrap;html=1;" vertex="1" parent="1">
          <mxGeometry x="710" y="595" width="120" height="60" as="geometry" />
        </mxCell>
        <mxCell id="LgGMUkChui8B4dA3I5-y-5" value="SUBJECT" style="rounded=0;whiteSpace=wrap;html=1;" vertex="1" parent="1">
          <mxGeometry x="940" y="350" width="120" height="60" as="geometry" />
        </mxCell>
        <mxCell id="LgGMUkChui8B4dA3I5-y-6" value="EXAMS" style="rounded=0;whiteSpace=wrap;html=1;" vertex="1" parent="1">
          <mxGeometry x="-310" y="730" width="120" height="60" as="geometry" />
        </mxCell>
        <mxCell id="LgGMUkChui8B4dA3I5-y-7" value="F_id" style="ellipse;whiteSpace=wrap;html=1;" vertex="1" parent="1">
          <mxGeometry x="-10" y="250" width="120" height="40" as="geometry" />
        </mxCell>
        <mxCell id="LgGMUkChui8B4dA3I5-y-8" value="Take" style="rhombus;whiteSpace=wrap;html=1;" vertex="1" parent="1">
          <mxGeometry x="680" y="350" width="80" height="80" as="geometry" />
        </mxCell>
        <mxCell id="LgGMUkChui8B4dA3I5-y-9" value="mobile_No" style="ellipse;whiteSpace=wrap;html=1;" vertex="1" parent="1">
          <mxGeometry x="-180" y="360" width="120" height="40" as="geometry" />
        </mxCell>
        <mxCell id="LgGMUkChui8B4dA3I5-y-10" value="Department" style="ellipse;whiteSpace=wrap;html=1;" vertex="1" parent="1">
          <mxGeometry x="-200" y="460" width="120" height="40" as="geometry" />
        </mxCell>
        <mxCell id="LgGMUkChui8B4dA3I5-y-11" value="Salary" style="ellipse;whiteSpace=wrap;html=1;" vertex="1" parent="1">
          <mxGeometry x="-40" y="470" width="120" height="40" as="geometry" />
        </mxCell>
        <mxCell id="LgGMUkChui8B4dA3I5-y-12" value="Name" style="ellipse;whiteSpace=wrap;html=1;" vertex="1" parent="1">
          <mxGeometry x="-160" y="250" width="120" height="40" as="geometry" />
        </mxCell>
        <mxCell id="LgGMUkChui8B4dA3I5-y-13" value="Phone_no" style="ellipse;whiteSpace=wrap;html=1;" vertex="1" parent="1">
          <mxGeometry x="420" y="200" width="120" height="40" as="geometry" />
        </mxCell>
        <mxCell id="LgGMUkChui8B4dA3I5-y-14" value="" style="endArrow=none;html=1;rounded=0;entryX=0.5;entryY=1;entryDx=0;entryDy=0;" edge="1" parent="1" source="LgGMUkChui8B4dA3I5-y-1" target="LgGMUkChui8B4dA3I5-y-7">
          <mxGeometry width="50" height="50" relative="1" as="geometry">
            <mxPoint x="120" y="350" as="sourcePoint" />
            <mxPoint x="170" y="300" as="targetPoint" />
          </mxGeometry>
        </mxCell>
        <mxCell id="LgGMUkChui8B4dA3I5-y-15" value="" style="endArrow=none;html=1;rounded=0;entryX=0.5;entryY=1;entryDx=0;entryDy=0;exitX=0.25;exitY=0;exitDx=0;exitDy=0;" edge="1" parent="1" source="LgGMUkChui8B4dA3I5-y-1" target="LgGMUkChui8B4dA3I5-y-12">
          <mxGeometry width="50" height="50" relative="1" as="geometry">
            <mxPoint x="-110" y="370" as="sourcePoint" />
            <mxPoint x="-60" y="320" as="targetPoint" />
          </mxGeometry>
        </mxCell>
        <mxCell id="LgGMUkChui8B4dA3I5-y-16" value="" style="endArrow=none;html=1;rounded=0;entryX=0;entryY=0.5;entryDx=0;entryDy=0;exitX=1;exitY=0.5;exitDx=0;exitDy=0;" edge="1" parent="1" target="LgGMUkChui8B4dA3I5-y-1">
          <mxGeometry width="50" height="50" relative="1" as="geometry">
            <mxPoint x="-90.00000000000455" y="380" as="sourcePoint" />
            <mxPoint x="-150" y="400" as="targetPoint" />
          </mxGeometry>
        </mxCell>
        <mxCell id="LgGMUkChui8B4dA3I5-y-17" value="" style="endArrow=none;html=1;rounded=0;entryX=0.25;entryY=1;entryDx=0;entryDy=0;exitX=0.6;exitY=-0.025;exitDx=0;exitDy=0;exitPerimeter=0;" edge="1" parent="1" source="LgGMUkChui8B4dA3I5-y-10" target="LgGMUkChui8B4dA3I5-y-1">
          <mxGeometry width="50" height="50" relative="1" as="geometry">
            <mxPoint x="-150" y="480" as="sourcePoint" />
            <mxPoint x="-100" y="430" as="targetPoint" />
          </mxGeometry>
        </mxCell>
        <mxCell id="LgGMUkChui8B4dA3I5-y-18" value="" style="endArrow=none;html=1;rounded=0;entryX=0.592;entryY=1.033;entryDx=0;entryDy=0;entryPerimeter=0;exitX=0.5;exitY=0;exitDx=0;exitDy=0;" edge="1" parent="1" source="LgGMUkChui8B4dA3I5-y-11" target="LgGMUkChui8B4dA3I5-y-1">
          <mxGeometry width="50" height="50" relative="1" as="geometry">
            <mxPoint x="50" y="480" as="sourcePoint" />
            <mxPoint x="100" y="430" as="targetPoint" />
          </mxGeometry>
        </mxCell>
        <mxCell id="LgGMUkChui8B4dA3I5-y-19" value="F_name" style="ellipse;whiteSpace=wrap;html=1;" vertex="1" parent="1">
          <mxGeometry x="630" y="280" width="120" height="40" as="geometry" />
        </mxCell>
        <mxCell id="LgGMUkChui8B4dA3I5-y-20" value="L_Name" style="ellipse;whiteSpace=wrap;html=1;" vertex="1" parent="1">
          <mxGeometry x="620" y="210" width="120" height="40" as="geometry" />
        </mxCell>
        <mxCell id="LgGMUkChui8B4dA3I5-y-21" value="S_id" style="ellipse;whiteSpace=wrap;html=1;" vertex="1" parent="1">
          <mxGeometry x="400" y="450" width="120" height="40" as="geometry" />
        </mxCell>
        <mxCell id="LgGMUkChui8B4dA3I5-y-22" value="Name" style="ellipse;whiteSpace=wrap;html=1;" vertex="1" parent="1">
          <mxGeometry x="480" y="270" width="120" height="40" as="geometry" />
        </mxCell>
        <mxCell id="LgGMUkChui8B4dA3I5-y-23" value="DoB" style="ellipse;whiteSpace=wrap;html=1;" vertex="1" parent="1">
          <mxGeometry x="320" y="170" width="120" height="40" as="geometry" />
        </mxCell>
        <mxCell id="LgGMUkChui8B4dA3I5-y-24" value="Age" style="ellipse;whiteSpace=wrap;html=1;" vertex="1" parent="1">
          <mxGeometry x="180" y="270" width="120" height="40" as="geometry" />
        </mxCell>
        <mxCell id="LgGMUkChui8B4dA3I5-y-25" value="Subject_id" style="ellipse;whiteSpace=wrap;html=1;" vertex="1" parent="1">
          <mxGeometry x="890" y="250" width="120" height="40" as="geometry" />
        </mxCell>
        <mxCell id="LgGMUkChui8B4dA3I5-y-26" value="" style="endArrow=none;html=1;rounded=0;entryX=0.5;entryY=1;entryDx=0;entryDy=0;exitX=0;exitY=0;exitDx=0;exitDy=0;" edge="1" parent="1" source="LgGMUkChui8B4dA3I5-y-2" target="LgGMUkChui8B4dA3I5-y-24">
          <mxGeometry width="50" height="50" relative="1" as="geometry">
            <mxPoint x="470" y="470" as="sourcePoint" />
            <mxPoint x="520" y="420" as="targetPoint" />
          </mxGeometry>
        </mxCell>
        <mxCell id="LgGMUkChui8B4dA3I5-y-27" value="" style="endArrow=none;html=1;rounded=0;entryX=0.5;entryY=1;entryDx=0;entryDy=0;exitX=0.25;exitY=0;exitDx=0;exitDy=0;" edge="1" parent="1" source="LgGMUkChui8B4dA3I5-y-2" target="LgGMUkChui8B4dA3I5-y-23">
          <mxGeometry width="50" height="50" relative="1" as="geometry">
            <mxPoint x="470" y="420" as="sourcePoint" />
            <mxPoint x="520" y="370" as="targetPoint" />
          </mxGeometry>
        </mxCell>
        <mxCell id="LgGMUkChui8B4dA3I5-y-28" value="" style="endArrow=none;html=1;rounded=0;entryX=0.107;entryY=0.8;entryDx=0;entryDy=0;exitX=0.75;exitY=0;exitDx=0;exitDy=0;entryPerimeter=0;" edge="1" parent="1" source="LgGMUkChui8B4dA3I5-y-2" target="LgGMUkChui8B4dA3I5-y-13">
          <mxGeometry width="50" height="50" relative="1" as="geometry">
            <mxPoint x="390" y="350" as="sourcePoint" />
            <mxPoint x="450" y="290" as="targetPoint" />
          </mxGeometry>
        </mxCell>
        <mxCell id="LgGMUkChui8B4dA3I5-y-29" value="" style="endArrow=none;html=1;rounded=0;entryX=0.058;entryY=0.342;entryDx=0;entryDy=0;exitX=1;exitY=0.5;exitDx=0;exitDy=0;entryPerimeter=0;" edge="1" parent="1" source="LgGMUkChui8B4dA3I5-y-2" target="LgGMUkChui8B4dA3I5-y-22">
          <mxGeometry width="50" height="50" relative="1" as="geometry">
            <mxPoint x="450" y="350" as="sourcePoint" />
            <mxPoint x="553" y="282" as="targetPoint" />
          </mxGeometry>
        </mxCell>
        <mxCell id="LgGMUkChui8B4dA3I5-y-30" value="" style="endArrow=none;html=1;rounded=0;entryX=0;entryY=0.5;entryDx=0;entryDy=0;exitX=0.5;exitY=0;exitDx=0;exitDy=0;" edge="1" parent="1" source="LgGMUkChui8B4dA3I5-y-22" target="LgGMUkChui8B4dA3I5-y-20">
          <mxGeometry width="50" height="50" relative="1" as="geometry">
            <mxPoint x="450" y="350" as="sourcePoint" />
            <mxPoint x="553" y="282" as="targetPoint" />
          </mxGeometry>
        </mxCell>
        <mxCell id="LgGMUkChui8B4dA3I5-y-31" value="" style="endArrow=none;html=1;rounded=0;entryX=0;entryY=1;entryDx=0;entryDy=0;exitX=0.551;exitY=1.008;exitDx=0;exitDy=0;exitPerimeter=0;" edge="1" parent="1" source="LgGMUkChui8B4dA3I5-y-22" target="LgGMUkChui8B4dA3I5-y-19">
          <mxGeometry width="50" height="50" relative="1" as="geometry">
            <mxPoint x="570" y="440" as="sourcePoint" />
            <mxPoint x="650" y="400" as="targetPoint" />
          </mxGeometry>
        </mxCell>
        <mxCell id="LgGMUkChui8B4dA3I5-y-32" value="" style="endArrow=none;html=1;rounded=0;entryX=0;entryY=0.5;entryDx=0;entryDy=0;exitX=0.5;exitY=1;exitDx=0;exitDy=0;" edge="1" parent="1" source="LgGMUkChui8B4dA3I5-y-2" target="LgGMUkChui8B4dA3I5-y-21">
          <mxGeometry width="50" height="50" relative="1" as="geometry">
            <mxPoint x="430" y="480" as="sourcePoint" />
            <mxPoint x="480" y="430" as="targetPoint" />
          </mxGeometry>
        </mxCell>
        <mxCell id="LgGMUkChui8B4dA3I5-y-33" value="Pin_code_OF_seats" style="ellipse;whiteSpace=wrap;html=1;" vertex="1" parent="1">
          <mxGeometry x="30" y="890" width="120" height="40" as="geometry" />
        </mxCell>
        <mxCell id="LgGMUkChui8B4dA3I5-y-34" value="Hostel_name" style="ellipse;whiteSpace=wrap;html=1;" vertex="1" parent="1">
          <mxGeometry x="310" y="970" width="120" height="40" as="geometry" />
        </mxCell>
        <mxCell id="LgGMUkChui8B4dA3I5-y-36" value="City" style="ellipse;whiteSpace=wrap;html=1;" vertex="1" parent="1">
          <mxGeometry x="300" y="900" width="120" height="40" as="geometry" />
        </mxCell>
        <mxCell id="LgGMUkChui8B4dA3I5-y-37" value="Hostel_id" style="ellipse;whiteSpace=wrap;html=1;" vertex="1" parent="1">
          <mxGeometry x="310" y="1040" width="120" height="40" as="geometry" />
        </mxCell>
        <mxCell id="LgGMUkChui8B4dA3I5-y-38" value="Address" style="ellipse;whiteSpace=wrap;html=1;" vertex="1" parent="1">
          <mxGeometry x="-10" y="960" width="120" height="40" as="geometry" />
        </mxCell>
        <mxCell id="LgGMUkChui8B4dA3I5-y-39" value="State" style="ellipse;whiteSpace=wrap;html=1;" vertex="1" parent="1">
          <mxGeometry x="220" y="850" width="120" height="40" as="geometry" />
        </mxCell>
        <mxCell id="LgGMUkChui8B4dA3I5-y-40" value="" style="endArrow=none;html=1;rounded=0;entryX=0;entryY=0.5;entryDx=0;entryDy=0;exitX=1;exitY=0.5;exitDx=0;exitDy=0;" edge="1" parent="1" source="LgGMUkChui8B4dA3I5-y-3" target="LgGMUkChui8B4dA3I5-y-37">
          <mxGeometry width="50" height="50" relative="1" as="geometry">
            <mxPoint x="230" y="1140" as="sourcePoint" />
            <mxPoint x="280" y="1090" as="targetPoint" />
          </mxGeometry>
        </mxCell>
        <mxCell id="LgGMUkChui8B4dA3I5-y-41" value="" style="endArrow=none;html=1;rounded=0;entryX=0;entryY=0.5;entryDx=0;entryDy=0;exitX=1;exitY=0;exitDx=0;exitDy=0;" edge="1" parent="1" source="LgGMUkChui8B4dA3I5-y-3" target="LgGMUkChui8B4dA3I5-y-34">
          <mxGeometry width="50" height="50" relative="1" as="geometry">
            <mxPoint x="230" y="1040" as="sourcePoint" />
            <mxPoint x="280" y="990" as="targetPoint" />
          </mxGeometry>
        </mxCell>
        <mxCell id="LgGMUkChui8B4dA3I5-y-42" value="" style="endArrow=none;html=1;rounded=0;entryX=0;entryY=1;entryDx=0;entryDy=0;exitX=0.75;exitY=0;exitDx=0;exitDy=0;" edge="1" parent="1" source="LgGMUkChui8B4dA3I5-y-3" target="LgGMUkChui8B4dA3I5-y-36">
          <mxGeometry width="50" height="50" relative="1" as="geometry">
            <mxPoint x="190" y="1010" as="sourcePoint" />
            <mxPoint x="240" y="960" as="targetPoint" />
          </mxGeometry>
        </mxCell>
        <mxCell id="LgGMUkChui8B4dA3I5-y-43" value="" style="endArrow=none;html=1;rounded=0;entryX=0.5;entryY=1;entryDx=0;entryDy=0;exitX=0.5;exitY=0;exitDx=0;exitDy=0;" edge="1" parent="1" source="LgGMUkChui8B4dA3I5-y-3" target="LgGMUkChui8B4dA3I5-y-39">
          <mxGeometry width="50" height="50" relative="1" as="geometry">
            <mxPoint x="240" y="1010" as="sourcePoint" />
            <mxPoint x="328" y="944" as="targetPoint" />
          </mxGeometry>
        </mxCell>
        <mxCell id="LgGMUkChui8B4dA3I5-y-44" value="" style="endArrow=none;html=1;rounded=0;entryX=0.5;entryY=1;entryDx=0;entryDy=0;exitX=0.25;exitY=0;exitDx=0;exitDy=0;" edge="1" parent="1" source="LgGMUkChui8B4dA3I5-y-3" target="LgGMUkChui8B4dA3I5-y-33">
          <mxGeometry width="50" height="50" relative="1" as="geometry">
            <mxPoint x="210" y="1010" as="sourcePoint" />
            <mxPoint x="230" y="940" as="targetPoint" />
          </mxGeometry>
        </mxCell>
        <mxCell id="LgGMUkChui8B4dA3I5-y-45" value="" style="endArrow=none;html=1;rounded=0;entryX=1;entryY=1;entryDx=0;entryDy=0;exitX=0;exitY=0.5;exitDx=0;exitDy=0;" edge="1" parent="1" source="LgGMUkChui8B4dA3I5-y-3" target="LgGMUkChui8B4dA3I5-y-38">
          <mxGeometry width="50" height="50" relative="1" as="geometry">
            <mxPoint x="120" y="1060" as="sourcePoint" />
            <mxPoint x="40" y="990" as="targetPoint" />
          </mxGeometry>
        </mxCell>
        <mxCell id="LgGMUkChui8B4dA3I5-y-46" value="Exam_code" style="ellipse;whiteSpace=wrap;html=1;" vertex="1" parent="1">
          <mxGeometry x="-375" y="630" width="120" height="40" as="geometry" />
        </mxCell>
        <mxCell id="LgGMUkChui8B4dA3I5-y-47" value="Duration" style="ellipse;whiteSpace=wrap;html=1;" vertex="1" parent="1">
          <mxGeometry x="830" y="535" width="120" height="40" as="geometry" />
        </mxCell>
        <mxCell id="LgGMUkChui8B4dA3I5-y-48" value="Coures_name" style="ellipse;whiteSpace=wrap;html=1;" vertex="1" parent="1">
          <mxGeometry x="570" y="540" width="120" height="40" as="geometry" />
        </mxCell>
        <mxCell id="LgGMUkChui8B4dA3I5-y-49" value="Course_id" style="ellipse;whiteSpace=wrap;html=1;" vertex="1" parent="1">
          <mxGeometry x="720" y="485" width="120" height="40" as="geometry" />
        </mxCell>
        <mxCell id="LgGMUkChui8B4dA3I5-y-50" value="" style="endArrow=none;html=1;rounded=0;entryX=0;entryY=0.5;entryDx=0;entryDy=0;exitX=0.5;exitY=1;exitDx=0;exitDy=0;" edge="1" parent="1" source="LgGMUkChui8B4dA3I5-y-48" target="LgGMUkChui8B4dA3I5-y-4">
          <mxGeometry width="50" height="50" relative="1" as="geometry">
            <mxPoint x="630" y="665" as="sourcePoint" />
            <mxPoint x="680" y="615" as="targetPoint" />
          </mxGeometry>
        </mxCell>
        <mxCell id="LgGMUkChui8B4dA3I5-y-51" value="" style="endArrow=none;html=1;rounded=0;entryX=0.5;entryY=1;entryDx=0;entryDy=0;exitX=1;exitY=0.5;exitDx=0;exitDy=0;" edge="1" parent="1" source="LgGMUkChui8B4dA3I5-y-4" target="LgGMUkChui8B4dA3I5-y-47">
          <mxGeometry width="50" height="50" relative="1" as="geometry">
            <mxPoint x="880" y="665" as="sourcePoint" />
            <mxPoint x="930" y="615" as="targetPoint" />
          </mxGeometry>
        </mxCell>
        <mxCell id="LgGMUkChui8B4dA3I5-y-52" value="" style="endArrow=none;html=1;rounded=0;entryX=0.5;entryY=1;entryDx=0;entryDy=0;exitX=0.5;exitY=0;exitDx=0;exitDy=0;" edge="1" parent="1" source="LgGMUkChui8B4dA3I5-y-4" target="LgGMUkChui8B4dA3I5-y-49">
          <mxGeometry width="50" height="50" relative="1" as="geometry">
            <mxPoint x="610" y="655" as="sourcePoint" />
            <mxPoint x="660" y="605" as="targetPoint" />
          </mxGeometry>
        </mxCell>
        <mxCell id="LgGMUkChui8B4dA3I5-y-53" value="Subject_name" style="ellipse;whiteSpace=wrap;html=1;" vertex="1" parent="1">
          <mxGeometry x="1030" y="260" width="120" height="40" as="geometry" />
        </mxCell>
        <mxCell id="LgGMUkChui8B4dA3I5-y-54" value="Date" style="ellipse;whiteSpace=wrap;html=1;" vertex="1" parent="1">
          <mxGeometry x="-240" y="630" width="120" height="40" as="geometry" />
        </mxCell>
        <mxCell id="LgGMUkChui8B4dA3I5-y-55" value="" style="endArrow=none;html=1;rounded=0;entryX=0.461;entryY=0.925;entryDx=0;entryDy=0;entryPerimeter=0;exitX=0.5;exitY=0;exitDx=0;exitDy=0;" edge="1" parent="1" source="LgGMUkChui8B4dA3I5-y-5" target="LgGMUkChui8B4dA3I5-y-25">
          <mxGeometry width="50" height="50" relative="1" as="geometry">
            <mxPoint x="670" y="370" as="sourcePoint" />
            <mxPoint x="720" y="320" as="targetPoint" />
          </mxGeometry>
        </mxCell>
        <mxCell id="LgGMUkChui8B4dA3I5-y-56" value="" style="endArrow=none;html=1;rounded=0;entryX=0.5;entryY=1;entryDx=0;entryDy=0;exitX=0.75;exitY=0;exitDx=0;exitDy=0;" edge="1" parent="1" source="LgGMUkChui8B4dA3I5-y-5" target="LgGMUkChui8B4dA3I5-y-53">
          <mxGeometry width="50" height="50" relative="1" as="geometry">
            <mxPoint x="900" y="420" as="sourcePoint" />
            <mxPoint x="950" y="370" as="targetPoint" />
          </mxGeometry>
        </mxCell>
        <mxCell id="LgGMUkChui8B4dA3I5-y-57" value="Department" style="rounded=0;whiteSpace=wrap;html=1;" vertex="1" parent="1">
          <mxGeometry x="365" y="700" width="120" height="60" as="geometry" />
        </mxCell>
        <mxCell id="LgGMUkChui8B4dA3I5-y-58" value="" style="endArrow=none;html=1;rounded=0;entryX=0.5;entryY=1;entryDx=0;entryDy=0;exitX=0.75;exitY=0;exitDx=0;exitDy=0;" edge="1" parent="1" source="LgGMUkChui8B4dA3I5-y-6" target="LgGMUkChui8B4dA3I5-y-54">
          <mxGeometry width="50" height="50" relative="1" as="geometry">
            <mxPoint x="-130" y="690" as="sourcePoint" />
            <mxPoint x="-80" y="640" as="targetPoint" />
          </mxGeometry>
        </mxCell>
        <mxCell id="LgGMUkChui8B4dA3I5-y-59" value="D_name" style="ellipse;whiteSpace=wrap;html=1;" vertex="1" parent="1">
          <mxGeometry x="440" y="595" width="120" height="40" as="geometry" />
        </mxCell>
        <mxCell id="LgGMUkChui8B4dA3I5-y-60" value="Department_id" style="ellipse;whiteSpace=wrap;html=1;" vertex="1" parent="1">
          <mxGeometry x="260" y="595" width="120" height="40" as="geometry" />
        </mxCell>
        <mxCell id="LgGMUkChui8B4dA3I5-y-61" value="Time" style="ellipse;whiteSpace=wrap;html=1;" vertex="1" parent="1">
          <mxGeometry x="-150" y="800" width="120" height="40" as="geometry" />
        </mxCell>
        <mxCell id="LgGMUkChui8B4dA3I5-y-62" value="Room" style="ellipse;whiteSpace=wrap;html=1;" vertex="1" parent="1">
          <mxGeometry x="-220" y="860" width="120" height="40" as="geometry" />
        </mxCell>
        <mxCell id="LgGMUkChui8B4dA3I5-y-63" value="" style="endArrow=none;html=1;rounded=0;entryX=0.5;entryY=1;entryDx=0;entryDy=0;exitX=0.25;exitY=0;exitDx=0;exitDy=0;" edge="1" parent="1" source="LgGMUkChui8B4dA3I5-y-6" target="LgGMUkChui8B4dA3I5-y-46">
          <mxGeometry width="50" height="50" relative="1" as="geometry">
            <mxPoint x="-410" y="770" as="sourcePoint" />
            <mxPoint x="-360" y="720" as="targetPoint" />
          </mxGeometry>
        </mxCell>
        <mxCell id="LgGMUkChui8B4dA3I5-y-64" value="" style="endArrow=none;html=1;rounded=0;entryX=0;entryY=1;entryDx=0;entryDy=0;exitX=1;exitY=0.5;exitDx=0;exitDy=0;" edge="1" parent="1" source="LgGMUkChui8B4dA3I5-y-6" target="LgGMUkChui8B4dA3I5-y-61">
          <mxGeometry width="50" height="50" relative="1" as="geometry">
            <mxPoint x="-220" y="840" as="sourcePoint" />
            <mxPoint x="-170" y="790" as="targetPoint" />
          </mxGeometry>
        </mxCell>
        <mxCell id="LgGMUkChui8B4dA3I5-y-65" value="" style="endArrow=none;html=1;rounded=0;entryX=0;entryY=0.5;entryDx=0;entryDy=0;exitX=1;exitY=1;exitDx=0;exitDy=0;" edge="1" parent="1" source="LgGMUkChui8B4dA3I5-y-6" target="LgGMUkChui8B4dA3I5-y-62">
          <mxGeometry width="50" height="50" relative="1" as="geometry">
            <mxPoint x="-200" y="860" as="sourcePoint" />
            <mxPoint x="-150" y="810" as="targetPoint" />
          </mxGeometry>
        </mxCell>
        <mxCell id="LgGMUkChui8B4dA3I5-y-66" value="" style="endArrow=none;html=1;rounded=0;entryX=0.5;entryY=1;entryDx=0;entryDy=0;exitX=0.25;exitY=0;exitDx=0;exitDy=0;" edge="1" parent="1" source="LgGMUkChui8B4dA3I5-y-57" target="LgGMUkChui8B4dA3I5-y-60">
          <mxGeometry width="50" height="50" relative="1" as="geometry">
            <mxPoint x="290" y="675" as="sourcePoint" />
            <mxPoint x="340" y="625" as="targetPoint" />
          </mxGeometry>
        </mxCell>
        <mxCell id="LgGMUkChui8B4dA3I5-y-67" value="" style="endArrow=none;html=1;rounded=0;entryX=0.5;entryY=1;entryDx=0;entryDy=0;exitX=0.75;exitY=0;exitDx=0;exitDy=0;" edge="1" parent="1" source="LgGMUkChui8B4dA3I5-y-57" target="LgGMUkChui8B4dA3I5-y-59">
          <mxGeometry width="50" height="50" relative="1" as="geometry">
            <mxPoint x="520" y="725" as="sourcePoint" />
            <mxPoint x="570" y="675" as="targetPoint" />
          </mxGeometry>
        </mxCell>
        <mxCell id="LgGMUkChui8B4dA3I5-y-68" value="Enroll" style="rhombus;whiteSpace=wrap;html=1;" vertex="1" parent="1">
          <mxGeometry x="550" y="405" width="80" height="80" as="geometry" />
        </mxCell>
        <mxCell id="LgGMUkChui8B4dA3I5-y-69" value="Conducted" style="rhombus;whiteSpace=wrap;html=1;" vertex="1" parent="1">
          <mxGeometry x="30" y="730" width="80" height="80" as="geometry" />
        </mxCell>
        <mxCell id="LgGMUkChui8B4dA3I5-y-71" value="" style="endArrow=none;html=1;rounded=0;entryX=0.25;entryY=0;entryDx=0;entryDy=0;exitX=1;exitY=0.5;exitDx=0;exitDy=0;" edge="1" parent="1" source="LgGMUkChui8B4dA3I5-y-68" target="LgGMUkChui8B4dA3I5-y-4">
          <mxGeometry width="50" height="50" relative="1" as="geometry">
            <mxPoint x="390" y="560" as="sourcePoint" />
            <mxPoint x="440" y="510" as="targetPoint" />
          </mxGeometry>
        </mxCell>
        <mxCell id="LgGMUkChui8B4dA3I5-y-72" value="" style="endArrow=none;html=1;rounded=0;entryX=0;entryY=0.5;entryDx=0;entryDy=0;exitX=1;exitY=0.75;exitDx=0;exitDy=0;" edge="1" parent="1" source="LgGMUkChui8B4dA3I5-y-2" target="LgGMUkChui8B4dA3I5-y-68">
          <mxGeometry width="50" height="50" relative="1" as="geometry">
            <mxPoint x="510" y="420" as="sourcePoint" />
            <mxPoint x="560" y="370" as="targetPoint" />
          </mxGeometry>
        </mxCell>
        <mxCell id="LgGMUkChui8B4dA3I5-y-73" value="Live" style="rhombus;whiteSpace=wrap;html=1;" vertex="1" parent="1">
          <mxGeometry x="120" y="620" width="80" height="80" as="geometry" />
        </mxCell>
        <mxCell id="LgGMUkChui8B4dA3I5-y-74" value="Take" style="rhombus;whiteSpace=wrap;html=1;" vertex="1" parent="1">
          <mxGeometry x="-30" y="590" width="80" height="80" as="geometry" />
        </mxCell>
        <mxCell id="LgGMUkChui8B4dA3I5-y-75" value="Belong" style="rhombus;whiteSpace=wrap;html=1;" vertex="1" parent="1">
          <mxGeometry x="280" y="460" width="80" height="80" as="geometry" />
        </mxCell>
        <mxCell id="LgGMUkChui8B4dA3I5-y-76" value="" style="endArrow=none;html=1;rounded=0;entryX=0.25;entryY=1;entryDx=0;entryDy=0;exitX=0.5;exitY=0;exitDx=0;exitDy=0;" edge="1" parent="1" source="LgGMUkChui8B4dA3I5-y-75" target="LgGMUkChui8B4dA3I5-y-2">
          <mxGeometry width="50" height="50" relative="1" as="geometry">
            <mxPoint x="230" y="460" as="sourcePoint" />
            <mxPoint x="280" y="410" as="targetPoint" />
          </mxGeometry>
        </mxCell>
        <mxCell id="LgGMUkChui8B4dA3I5-y-77" value="" style="endArrow=none;html=1;rounded=0;entryX=0.5;entryY=1;entryDx=0;entryDy=0;exitX=0.5;exitY=0;exitDx=0;exitDy=0;" edge="1" parent="1" source="LgGMUkChui8B4dA3I5-y-60" target="LgGMUkChui8B4dA3I5-y-75">
          <mxGeometry width="50" height="50" relative="1" as="geometry">
            <mxPoint x="230" y="560" as="sourcePoint" />
            <mxPoint x="280" y="510" as="targetPoint" />
          </mxGeometry>
        </mxCell>
        <mxCell id="LgGMUkChui8B4dA3I5-y-78" value="" style="endArrow=none;html=1;rounded=0;entryX=0;entryY=0.5;entryDx=0;entryDy=0;exitX=0.5;exitY=0;exitDx=0;exitDy=0;" edge="1" parent="1" source="LgGMUkChui8B4dA3I5-y-74" target="LgGMUkChui8B4dA3I5-y-2">
          <mxGeometry width="50" height="50" relative="1" as="geometry">
            <mxPoint x="80" y="560" as="sourcePoint" />
            <mxPoint x="130" y="510" as="targetPoint" />
          </mxGeometry>
        </mxCell>
        <mxCell id="LgGMUkChui8B4dA3I5-y-79" value="" style="endArrow=none;html=1;rounded=0;entryX=0;entryY=0.5;entryDx=0;entryDy=0;exitX=1;exitY=0;exitDx=0;exitDy=0;" edge="1" parent="1" source="LgGMUkChui8B4dA3I5-y-6" target="LgGMUkChui8B4dA3I5-y-74">
          <mxGeometry width="50" height="50" relative="1" as="geometry">
            <mxPoint x="-100" y="610" as="sourcePoint" />
            <mxPoint x="-50" y="560" as="targetPoint" />
          </mxGeometry>
        </mxCell>
        <mxCell id="LgGMUkChui8B4dA3I5-y-80" value="" style="endArrow=none;html=1;rounded=0;entryX=0;entryY=1;entryDx=0;entryDy=0;exitX=0.5;exitY=0;exitDx=0;exitDy=0;" edge="1" parent="1" source="LgGMUkChui8B4dA3I5-y-73" target="LgGMUkChui8B4dA3I5-y-2">
          <mxGeometry width="50" height="50" relative="1" as="geometry">
            <mxPoint x="210" y="560" as="sourcePoint" />
            <mxPoint x="210" y="520" as="targetPoint" />
          </mxGeometry>
        </mxCell>
        <mxCell id="LgGMUkChui8B4dA3I5-y-81" value="" style="endArrow=none;html=1;rounded=0;entryX=0.5;entryY=1;entryDx=0;entryDy=0;" edge="1" parent="1" source="LgGMUkChui8B4dA3I5-y-3" target="LgGMUkChui8B4dA3I5-y-73">
          <mxGeometry width="50" height="50" relative="1" as="geometry">
            <mxPoint x="100" y="830" as="sourcePoint" />
            <mxPoint x="290" y="610" as="targetPoint" />
          </mxGeometry>
        </mxCell>
        <mxCell id="LgGMUkChui8B4dA3I5-y-82" value="handled" style="rhombus;whiteSpace=wrap;html=1;" vertex="1" parent="1">
          <mxGeometry x="550" y="680" width="80" height="80" as="geometry" />
        </mxCell>
        <mxCell id="LgGMUkChui8B4dA3I5-y-83" value="" style="endArrow=none;html=1;rounded=0;entryX=0.03;entryY=0.98;entryDx=0;entryDy=0;entryPerimeter=0;exitX=1;exitY=0.5;exitDx=0;exitDy=0;" edge="1" parent="1" source="LgGMUkChui8B4dA3I5-y-82" target="LgGMUkChui8B4dA3I5-y-4">
          <mxGeometry width="50" height="50" relative="1" as="geometry">
            <mxPoint x="680" y="730" as="sourcePoint" />
            <mxPoint x="730" y="680" as="targetPoint" />
          </mxGeometry>
        </mxCell>
        <mxCell id="LgGMUkChui8B4dA3I5-y-84" value="" style="endArrow=none;html=1;rounded=0;exitX=1;exitY=0.5;exitDx=0;exitDy=0;entryX=0;entryY=0.5;entryDx=0;entryDy=0;" edge="1" parent="1" source="LgGMUkChui8B4dA3I5-y-57" target="LgGMUkChui8B4dA3I5-y-82">
          <mxGeometry width="50" height="50" relative="1" as="geometry">
            <mxPoint x="486" y="770" as="sourcePoint" />
            <mxPoint x="570" y="704" as="targetPoint" />
          </mxGeometry>
        </mxCell>
        <mxCell id="LgGMUkChui8B4dA3I5-y-85" value="" style="endArrow=none;html=1;rounded=0;entryX=0;entryY=0.5;entryDx=0;entryDy=0;exitX=1;exitY=0.5;exitDx=0;exitDy=0;" edge="1" parent="1" source="LgGMUkChui8B4dA3I5-y-2" target="LgGMUkChui8B4dA3I5-y-8">
          <mxGeometry width="50" height="50" relative="1" as="geometry">
            <mxPoint x="520" y="370" as="sourcePoint" />
            <mxPoint x="570" y="320" as="targetPoint" />
          </mxGeometry>
        </mxCell>
        <mxCell id="LgGMUkChui8B4dA3I5-y-86" value="" style="endArrow=none;html=1;rounded=0;entryX=0;entryY=0.5;entryDx=0;entryDy=0;exitX=1;exitY=0.5;exitDx=0;exitDy=0;" edge="1" parent="1" source="LgGMUkChui8B4dA3I5-y-8" target="LgGMUkChui8B4dA3I5-y-5">
          <mxGeometry width="50" height="50" relative="1" as="geometry">
            <mxPoint x="780" y="420" as="sourcePoint" />
            <mxPoint x="830" y="370" as="targetPoint" />
          </mxGeometry>
        </mxCell>
        <mxCell id="LgGMUkChui8B4dA3I5-y-88" value="" style="endArrow=none;html=1;rounded=0;entryX=0;entryY=0.5;entryDx=0;entryDy=0;exitX=1;exitY=0.5;exitDx=0;exitDy=0;" edge="1" parent="1" source="LgGMUkChui8B4dA3I5-y-69" target="LgGMUkChui8B4dA3I5-y-57">
          <mxGeometry width="50" height="50" relative="1" as="geometry">
            <mxPoint x="80" y="830" as="sourcePoint" />
            <mxPoint x="130" y="780" as="targetPoint" />
          </mxGeometry>
        </mxCell>
        <mxCell id="LgGMUkChui8B4dA3I5-y-89" value="" style="endArrow=none;html=1;rounded=0;entryX=0;entryY=0.5;entryDx=0;entryDy=0;exitX=1;exitY=0.5;exitDx=0;exitDy=0;" edge="1" parent="1" source="LgGMUkChui8B4dA3I5-y-6" target="LgGMUkChui8B4dA3I5-y-69">
          <mxGeometry width="50" height="50" relative="1" as="geometry">
            <mxPoint x="-30" y="810" as="sourcePoint" />
            <mxPoint x="20" y="760" as="targetPoint" />
          </mxGeometry>
        </mxCell>
        <mxCell id="LgGMUkChui8B4dA3I5-y-90" value="Teaches" style="rhombus;whiteSpace=wrap;html=1;" vertex="1" parent="1">
          <mxGeometry x="140" y="340" width="80" height="80" as="geometry" />
        </mxCell>
        <mxCell id="LgGMUkChui8B4dA3I5-y-91" value="" style="endArrow=none;html=1;rounded=0;entryX=0.012;entryY=0.456;entryDx=0;entryDy=0;entryPerimeter=0;exitX=1;exitY=0.5;exitDx=0;exitDy=0;" edge="1" parent="1" source="LgGMUkChui8B4dA3I5-y-1" target="LgGMUkChui8B4dA3I5-y-90">
          <mxGeometry width="50" height="50" relative="1" as="geometry">
            <mxPoint x="80" y="410" as="sourcePoint" />
            <mxPoint x="130" y="360" as="targetPoint" />
          </mxGeometry>
        </mxCell>
        <mxCell id="LgGMUkChui8B4dA3I5-y-92" value="" style="endArrow=none;html=1;rounded=0;entryX=0;entryY=0.25;entryDx=0;entryDy=0;exitX=0.96;exitY=0.508;exitDx=0;exitDy=0;exitPerimeter=0;" edge="1" parent="1" source="LgGMUkChui8B4dA3I5-y-90" target="LgGMUkChui8B4dA3I5-y-2">
          <mxGeometry width="50" height="50" relative="1" as="geometry">
            <mxPoint x="240" y="410" as="sourcePoint" />
            <mxPoint x="290" y="360" as="targetPoint" />
          </mxGeometry>
        </mxCell>
        <mxCell id="LgGMUkChui8B4dA3I5-y-93" value="M" style="text;html=1;align=center;verticalAlign=middle;whiteSpace=wrap;rounded=0;" vertex="1" parent="1">
          <mxGeometry x="480" y="380" width="60" height="30" as="geometry" />
        </mxCell>
        <mxCell id="LgGMUkChui8B4dA3I5-y-94" value="M" style="text;html=1;align=center;verticalAlign=middle;whiteSpace=wrap;rounded=0;" vertex="1" parent="1">
          <mxGeometry x="710" y="545" width="60" height="30" as="geometry" />
        </mxCell>
        <mxCell id="LgGMUkChui8B4dA3I5-y-95" value="M" style="text;html=1;align=center;verticalAlign=middle;whiteSpace=wrap;rounded=0;" vertex="1" parent="1">
          <mxGeometry x="320" y="430" width="60" height="30" as="geometry" />
        </mxCell>
        <mxCell id="LgGMUkChui8B4dA3I5-y-96" value="1" style="text;html=1;align=center;verticalAlign=middle;whiteSpace=wrap;rounded=0;" vertex="1" parent="1">
          <mxGeometry x="310" y="560" width="60" height="30" as="geometry" />
        </mxCell>
        <mxCell id="LgGMUkChui8B4dA3I5-y-97" value="M" style="text;html=1;align=center;verticalAlign=middle;whiteSpace=wrap;rounded=0;" vertex="1" parent="1">
          <mxGeometry x="240" y="390" width="60" height="30" as="geometry" />
        </mxCell>
        <mxCell id="LgGMUkChui8B4dA3I5-y-98" value="M" style="text;html=1;align=center;verticalAlign=middle;whiteSpace=wrap;rounded=0;" vertex="1" parent="1">
          <mxGeometry x="-160" y="700" width="60" height="30" as="geometry" />
        </mxCell>
        <mxCell id="LgGMUkChui8B4dA3I5-y-100" value="" style="endArrow=none;html=1;rounded=0;entryX=0;entryY=1;entryDx=0;entryDy=0;exitX=0.5;exitY=0;exitDx=0;exitDy=0;" edge="1" parent="1" source="LgGMUkChui8B4dA3I5-y-73">
          <mxGeometry width="50" height="50" relative="1" as="geometry">
            <mxPoint x="160" y="620" as="sourcePoint" />
            <mxPoint x="180" y="590" as="targetPoint" />
          </mxGeometry>
        </mxCell>
        <mxCell id="LgGMUkChui8B4dA3I5-y-101" value="1" style="text;html=1;align=center;verticalAlign=middle;whiteSpace=wrap;rounded=0;" vertex="1" parent="1">
          <mxGeometry x="170" y="920" width="60" height="30" as="geometry" />
        </mxCell>
        <mxCell id="LgGMUkChui8B4dA3I5-y-102" value="M" style="text;html=1;align=center;verticalAlign=middle;whiteSpace=wrap;rounded=0;" vertex="1" parent="1">
          <mxGeometry x="160" y="595" width="60" height="30" as="geometry" />
        </mxCell>
        <mxCell id="LgGMUkChui8B4dA3I5-y-103" value="M" style="text;html=1;align=center;verticalAlign=middle;whiteSpace=wrap;rounded=0;" vertex="1" parent="1">
          <mxGeometry x="485" y="690" width="60" height="30" as="geometry" />
        </mxCell>
        <mxCell id="LgGMUkChui8B4dA3I5-y-104" value="1" style="text;html=1;align=center;verticalAlign=middle;whiteSpace=wrap;rounded=0;" vertex="1" parent="1">
          <mxGeometry x="630" y="655" width="60" height="30" as="geometry" />
        </mxCell>
        <mxCell id="LgGMUkChui8B4dA3I5-y-105" value="M" style="text;html=1;align=center;verticalAlign=middle;whiteSpace=wrap;rounded=0;" vertex="1" parent="1">
          <mxGeometry x="610" y="355" width="60" height="30" as="geometry" />
        </mxCell>
        <mxCell id="LgGMUkChui8B4dA3I5-y-106" value="M" style="text;html=1;align=center;verticalAlign=middle;whiteSpace=wrap;rounded=0;" vertex="1" parent="1">
          <mxGeometry x="800" y="355" width="60" height="30" as="geometry" />
        </mxCell>
        <mxCell id="LgGMUkChui8B4dA3I5-y-107" value="Taught" style="rhombus;whiteSpace=wrap;html=1;" vertex="1" parent="1">
          <mxGeometry x="380" y="10" width="80" height="80" as="geometry" />
        </mxCell>
        <mxCell id="LgGMUkChui8B4dA3I5-y-108" value="" style="endArrow=none;html=1;rounded=0;exitX=1;exitY=0;exitDx=0;exitDy=0;" edge="1" parent="1" source="LgGMUkChui8B4dA3I5-y-1" target="LgGMUkChui8B4dA3I5-y-107">
          <mxGeometry width="50" height="50" relative="1" as="geometry">
            <mxPoint x="210" y="230" as="sourcePoint" />
            <mxPoint x="260" y="180" as="targetPoint" />
          </mxGeometry>
        </mxCell>
        <mxCell id="LgGMUkChui8B4dA3I5-y-109" value="" style="endArrow=none;html=1;rounded=0;entryX=1;entryY=0.5;entryDx=0;entryDy=0;" edge="1" parent="1" source="LgGMUkChui8B4dA3I5-y-5" target="LgGMUkChui8B4dA3I5-y-107">
          <mxGeometry width="50" height="50" relative="1" as="geometry">
            <mxPoint x="590" y="150" as="sourcePoint" />
            <mxPoint x="640" y="100" as="targetPoint" />
          </mxGeometry>
        </mxCell>
        <mxCell id="LgGMUkChui8B4dA3I5-y-110" value="M" style="text;html=1;align=center;verticalAlign=middle;whiteSpace=wrap;rounded=0;" vertex="1" parent="1">
          <mxGeometry x="320" y="70" width="60" height="30" as="geometry" />
        </mxCell>
        <mxCell id="LgGMUkChui8B4dA3I5-y-111" value="1" style="text;html=1;align=center;verticalAlign=middle;whiteSpace=wrap;rounded=0;" vertex="1" parent="1">
          <mxGeometry x="900" y="310" width="60" height="30" as="geometry" />
        </mxCell>
        <mxCell id="LgGMUkChui8B4dA3I5-y-112" value="M" style="text;html=1;align=center;verticalAlign=middle;whiteSpace=wrap;rounded=0;" vertex="1" parent="1">
          <mxGeometry x="-170" y="760" width="60" height="30" as="geometry" />
        </mxCell>
        <mxCell id="LgGMUkChui8B4dA3I5-y-113" value="1" style="text;html=1;align=center;verticalAlign=middle;whiteSpace=wrap;rounded=0;" vertex="1" parent="1">
          <mxGeometry x="280" y="740" width="60" height="30" as="geometry" />
        </mxCell>
      </root>
    </mxGraphModel>
  </diagram>
</mxfile>
